<svg width="152" height="32" viewBox="0 0 152 32" fill="none" xmlns="http://www.w3.org/2000/svg">
<path d="M93.9442 28.1572V19.9439C93.9442 17.5973 95.3222 16.4826 97.0242 16.4826C98.7252 16.4826 99.8102 17.5679 99.8102 19.5919V28.1572H103.389V19.9439C103.389 17.5679 104.709 16.4533 106.44 16.4533C108.141 16.4533 109.256 17.5386 109.256 19.6213V28.1572H112.805V18.6826C112.805 15.3386 110.869 13.2266 107.349 13.2266C105.149 13.2266 103.448 14.3119 102.714 15.9839C101.952 14.3119 100.426 13.2266 98.2262 13.2266C96.1442 13.2266 94.6772 14.1653 93.9442 15.3679L93.6502 13.6666H90.3652V28.1572H93.9442Z" fill="black"/>
<path d="M0 8.42105C0 3.77023 3.77023 0 8.42105 0H23.5789C28.2298 0 32 3.77023 32 8.42105V23.5789C32 28.2298 28.2298 32 23.5789 32H8.42105C3.77023 32 0 28.2298 0 23.5789V8.42105Z" fill="#3C50E0"/>
<path d="M46.0269 17.7093L46.0672 28.4375H50.7721C55.8802 28.4375 56.7808 28.3234 58.3267 27.4592C59.7785 26.6603 61.3512 24.3941 61.8621 22.356C62.4266 20.1224 62.467 16.0952 61.9293 13.6007C61.4185 11.1714 59.9667 8.85618 58.367 7.92684C56.969 7.09532 56.1894 6.9975 50.8662 6.9975H46L46.0269 17.7093ZM55.0602 12.3616C55.8936 12.867 56.4044 13.8126 56.633 15.2963C56.848 16.7637 56.7271 20.5626 56.4448 21.3452C56.149 22.1441 55.7189 22.7799 55.2484 23.0734C54.7779 23.3669 52.6002 23.6604 51.955 23.5299L51.5114 23.4321V17.6441V11.8561L52.9632 11.9214C54.1327 11.9703 54.5225 12.0518 55.0602 12.3616Z" fill="black"/>
<path d="M67.5787 13.6641C66.1302 14.4362 65.2355 15.4808 64.4899 17.2294C64.1065 18.1151 64 18.7509 64 20.5904C64 22.5661 64.0639 23.0202 64.5538 24.133C66.5988 28.7884 72.2863 29.7648 75.375 25.9951C77.8673 22.9975 77.8034 17.8426 75.2046 14.9585C73.9691 13.5505 73.0106 13.1418 70.8165 13.0282C69.0059 12.9601 68.8142 12.9828 67.5787 13.6641ZM71.349 14.4589C72.3289 15.0039 72.5206 15.9804 72.5206 20.7039C72.5206 24.1557 72.4567 25.0641 72.1585 25.7453C71.5195 27.2668 70.0923 27.4485 69.1976 26.1541C68.6224 25.3366 68.3029 22.4071 68.452 19.3414C68.6011 16.2302 68.8355 15.2083 69.581 14.5724C70.2414 14.0274 70.5396 14.0047 71.349 14.4589Z" fill="black"/>
<path d="M80.3372 13.2031C79.0949 13.3378 79.0609 13.3603 79.0098 13.9442C78.9758 14.3933 79.0269 14.573 79.214 14.573C79.3672 14.573 79.6395 14.7751 79.8267 15.0222C80.15 15.4489 80.167 15.7633 80.167 20.5244C80.167 25.2855 80.15 25.5999 79.8267 26.0266C79.6395 26.2736 79.3842 26.4757 79.2481 26.4757C79.0779 26.4757 79.0098 26.6779 79.0269 27.0821L79.0609 27.7109H82.039H85.017L85.0681 27.0821C85.1191 26.5431 85.0681 26.4757 84.6086 26.4757C84.3023 26.4757 83.9279 26.2736 83.7237 26.0041C83.3833 25.555 83.3663 25.3528 83.4344 21.6922C83.4855 18.0764 83.5195 17.7396 83.9449 16.5493C84.6256 14.6179 85.5786 14.1912 85.3574 15.9429C85.2553 16.6841 85.3063 16.8862 85.6807 17.3803C86.2933 18.1887 87.1783 18.1438 87.8419 17.2904C88.6418 16.2124 88.4546 14.5056 87.4505 13.6522C87.0081 13.2929 86.6847 13.2255 85.936 13.2704C84.8639 13.3603 84.3023 13.8319 83.5876 15.2018L83.1451 16.0328L83.094 14.5056L83.043 13.0009L82.3283 13.0459C81.9369 13.0683 81.0349 13.1357 80.3372 13.2031Z" fill="black"/>
<path d="M119.124 13.2725C118.03 13.6741 116.519 15.1023 115.882 16.3519C114.43 19.2304 114.808 23.4702 116.737 25.9471C117.095 26.3934 117.891 27.0405 118.508 27.3752C119.462 27.9107 119.88 28 121.232 28C122.107 28 123.181 27.8661 123.599 27.6876C124.574 27.3083 126.006 25.8355 126.523 24.7198L126.92 23.8718L126.364 23.6264C125.906 23.4255 125.767 23.4702 125.608 23.7826C125.15 24.6528 123.977 25.9694 123.38 26.2595C120.974 27.3752 119.343 25.5454 119.343 21.7073V20.3015L123.181 20.2569L127 20.1899L126.94 19.1858C126.821 16.8205 125.568 14.5444 123.858 13.5849C122.803 12.9601 120.397 12.8039 119.124 13.2725ZM122.406 15.013C122.704 15.4816 122.843 16.0618 122.883 17.3114L122.963 18.9627H121.153H119.343V18.0031C119.363 16.7758 119.621 15.5262 120.039 14.8122C120.317 14.3436 120.496 14.2543 121.173 14.3212C121.789 14.3659 122.088 14.5444 122.406 15.013Z" fill="black"/>
<path d="M133.425 13.142C131.556 13.5494 130.421 15.1305 130.294 17.494L130.214 18.7816H129.591C128.999 18.7816 128.967 18.8142 129.015 19.2217C129.063 19.6129 129.143 19.6781 129.671 19.727L130.262 19.7759V23.0684C130.262 24.8777 130.214 26.524 130.166 26.7359C130.102 26.9315 129.862 27.2086 129.607 27.3553C129.287 27.5183 129.143 27.7139 129.143 27.9909V28.3984H132.019H134.895V27.9094C134.895 27.4531 134.864 27.4205 134.256 27.4205C133.793 27.4205 133.585 27.339 133.457 27.1108C133.362 26.9152 133.298 25.383 133.298 23.2803V19.7596H134.496H135.694V19.2706V18.7816H134.48H133.266L133.33 16.842C133.378 15.1631 133.425 14.8208 133.713 14.4296C134.129 13.8591 135.215 13.6635 135.215 14.1688C135.215 14.3318 135.103 14.6089 134.975 14.7719C134.64 15.212 134.672 15.7336 135.071 16.2389C135.503 16.8094 136.445 16.8257 137.069 16.2878C137.404 15.9944 137.5 15.7662 137.5 15.2446C137.5 13.5657 135.678 12.6204 133.425 13.142Z" fill="black"/>
<path d="M140.04 13.144C139.885 13.4066 140.195 13.9842 140.676 14.2292C141.261 14.5268 141.656 15.2269 143.168 18.5176C143.804 19.9178 144.664 21.7907 145.076 22.6659L145.815 24.2762L145.128 25.6765C144.75 26.4466 144.2 27.2693 143.908 27.5318C143.357 28.0044 142.773 28.0569 142.893 27.6018C143.117 26.7967 143.082 26.4466 142.739 25.9915C142.464 25.6414 142.223 25.5189 141.793 25.5189C140.986 25.5189 140.693 25.659 140.418 26.2366C140.023 27.0067 140.092 27.7244 140.659 28.3545C141.071 28.8271 141.278 28.9146 142.171 28.9846C143.753 29.1071 144.698 28.512 145.747 26.7267C146.073 26.1841 147.294 23.331 148.48 20.3729C149.648 17.4149 150.748 14.8419 150.92 14.6318C151.109 14.4393 151.419 14.2117 151.642 14.1242C151.952 14.0017 152.038 13.8617 151.986 13.4941L151.934 13.0215L150.13 13.004C147.998 12.9865 147.895 13.004 147.895 13.5291C147.895 13.8442 148.033 13.9842 148.497 14.1417C148.823 14.2468 149.133 14.4918 149.184 14.6668C149.27 14.9469 147.689 19.5853 147.38 19.9704C147.242 20.1279 145.128 15.2444 145.094 14.6843C145.059 14.3343 145.179 14.2117 145.626 14.0892C146.09 13.9317 146.194 13.8442 146.142 13.4591L146.09 13.0215H143.117C141.467 13.004 140.092 13.0565 140.04 13.144Z" fill="black"/>
<path d="M24.6811 15.0382L21.8015 11.7831V8.02286C21.8015 7.34296 21.3141 6.79195 20.7118 6.79195C20.1109 6.79195 19.6235 7.34296 19.6235 8.02286V9.32097L17.4794 6.89717C16.4194 5.69952 14.5763 5.70164 13.5187 6.89934L6.31877 15.0382C5.89374 15.5196 5.89374 16.2986 6.31877 16.7793C6.74399 17.2606 7.43442 17.2606 7.85949 16.7793L15.0587 8.6402C15.2933 8.37646 15.7066 8.37646 15.9399 8.63942L23.1404 16.7793C23.3539 17.02 23.6323 17.1397 23.9106 17.1397C24.1894 17.1397 24.4683 17.0198 24.6811 16.7793C25.1063 16.2987 25.1063 15.5197 24.6811 15.0382Z" fill="white"/>
<path d="M15.88 10.9741C15.6708 10.7378 15.3321 10.7378 15.1235 10.9741L8.79046 18.1311C8.69047 18.2441 8.63379 18.3984 8.63379 18.5594V23.7794C8.63379 25.0043 9.51238 25.9975 10.5959 25.9975H13.7314V20.5082H17.2714V25.9975H20.4069C21.4904 25.9975 22.369 25.0043 22.369 23.7794V18.5594C22.369 18.3984 22.3129 18.2441 22.2124 18.1311L15.88 10.9741Z" fill="white"/>
</svg>
