<svg width="152" height="32" viewBox="0 0 152 32" fill="none" xmlns="http://www.w3.org/2000/svg">
<path d="M0 8.42105C0 3.77023 3.77023 0 8.42105 0H23.5789C28.2298 0 32 3.77023 32 8.42105V23.5789C32 28.2298 28.2298 32 23.5789 32H8.42105C3.77023 32 0 28.2298 0 23.5789V8.42105Z" fill="#3C50E0"/>
<path d="M24.6811 15.0382L21.8015 11.7831V8.02286C21.8015 7.34296 21.3141 6.79195 20.7118 6.79195C20.1109 6.79195 19.6235 7.34296 19.6235 8.02286V9.32097L17.4794 6.89717C16.4194 5.69952 14.5763 5.70164 13.5187 6.89934L6.31877 15.0382C5.89374 15.5196 5.89374 16.2986 6.31877 16.7793C6.74399 17.2606 7.43442 17.2606 7.85949 16.7793L15.0587 8.6402C15.2933 8.37646 15.7066 8.37646 15.9399 8.63942L23.1404 16.7793C23.3539 17.02 23.6323 17.1397 23.9106 17.1397C24.1894 17.1397 24.4683 17.0198 24.6811 16.7793C25.1063 16.2987 25.1063 15.5197 24.6811 15.0382Z" fill="white"/>
<path d="M15.88 10.9741C15.6708 10.7378 15.3321 10.7378 15.1235 10.9741L8.79046 18.1311C8.69047 18.2441 8.63379 18.3984 8.63379 18.5594V23.7794C8.63379 25.0043 9.51238 25.9975 10.5959 25.9975H13.7314V20.5082H17.2714V25.9975H20.4069C21.4904 25.9975 22.369 25.0043 22.369 23.7794V18.5594C22.369 18.3984 22.3129 18.2441 22.2124 18.1311L15.88 10.9741Z" fill="white"/>
</svg>
